Coordinates
version=1
nRows=11
nColumns=40
inDegrees=yes

Units are S.I. units (second, meters, Newtons, ...)
Angles are in degrees.

endheader
time	pelvis_tilt	pelvis_list	pelvis_rotation	pelvis_tx	pelvis_ty	pelvis_tz	hip_flexion_r	hip_adduction_r	hip_rotation_r	knee_angle_r	knee_angle_r_beta	ankle_angle_r	subtalar_angle_r	mtp_angle_r	hip_flexion_l	hip_adduction_l	hip_rotation_l	knee_angle_l	knee_angle_l_beta	ankle_angle_l	subtalar_angle_l	mtp_angle_l	lumbar_extension	lumbar_bending	lumbar_rotation	arm_flex_r	arm_add_r	arm_rot_r	elbow_flex_r	pro_sup_r	wrist_flex_r	wrist_dev_r	arm_flex_l	arm_add_l	arm_rot_l	elbow_flex_l	pro_sup_l	wrist_flex_l	wrist_dev_l
     28.65000000	     -2.69382653	     -3.34649967	      4.72110226	      1.10602738	      0.92598598	      0.45027599	      1.35152244	     -0.56399556	    -13.08394114	     25.17647000	     25.17647000	     18.53911096	      1.31221241	     -5.24926765	     23.55625757	     -4.86461088	     -2.16163755	     24.39548118	     24.39548118	      7.20534476	    -11.25844271	      0.30773708	     -7.55255607	      4.28998587	      3.51721988	     25.82457807	    -16.86219263	      1.92817794	     83.56358352	     45.06133786	      0.00000000	      0.00000000	     -1.36614817	     -8.87670643	      3.59562265	     31.04776472	     45.11360761	      0.00000000	      0.00000000
     28.66285714	     -2.54422123	     -3.11843281	      4.51835343	      1.10617620	      0.92654284	      0.44805586	      2.37461163	     -1.31985000	    -12.63748870	     28.01601203	     28.01601203	     18.08356600	      0.43566734	     -6.19934297	     22.91294711	     -4.61999612	     -2.56493707	     24.37624364	     24.37624364	      7.65059758	    -11.09218507	      0.00415847	     -7.79435979	      4.00802436	      3.42104262	     24.34981582	    -16.69713913	      2.28898349	     82.23987249	     45.08761770	      0.00000000	      0.00000000	      0.01606955	     -9.16008440	      3.45690107	     31.40207817	     45.15961456	      0.00000000	      0.00000000
     28.67571429	     -2.60850095	     -3.05514447	      4.29190389	      1.10607509	      0.92662429	      0.44608368	      3.82506595	     -1.83092768	    -11.92035240	     30.97856296	     30.97856296	     16.59620243	     -1.38113211	     -9.20256755	     22.59152541	     -4.53408088	     -2.87903728	     24.44387008	     24.44387008	      7.93392295	    -11.06308700	     -0.58765268	     -7.69139503	      3.85489219	      3.33746154	     23.14305778	    -16.47614342	      2.53528878	     79.30046000	     45.17451508	      0.00000000	      0.00000000	      1.50951360	     -9.34468776	      3.19551273	     31.37733827	     45.23884284	      0.00000000	      0.00000000
     28.68857143	     -2.50896805	     -2.77896224	      4.08085147	      1.10598492	      0.92681950	      0.44398836	      5.33795358	     -2.70444882	    -11.43555876	     34.48665755	     34.48665755	     15.66881800	     -2.39982021	    -10.34538517	     21.99817009	     -4.21087749	     -3.23043450	     24.39128282	     24.39128282	      8.34232918	    -10.99053245	     -0.88335978	     -7.92845037	      3.51822453	      3.15061042	     21.56813233	    -16.30793293	      2.90688328	     78.05425811	     45.19673664	      0.00000000	      0.00000000	      2.87813566	     -9.63915452	      3.06413969	     31.90459198	     45.28212156	      0.00000000	      0.00000000
     28.70142857	     -2.48967093	     -2.63220333	      3.88599850	      1.10569720	      0.92681893	      0.44212391	      6.93886465	     -3.27793571	    -10.68586191	     37.61240790	     37.61240790	     12.57779162	     -5.16200877	    -16.27890432	     21.54975819	     -3.97851148	     -3.33095549	     24.35602921	     24.35602921	      8.42021212	    -11.31908233	     -1.74061853	     -7.94758928	      3.30073034	      2.71760722	     20.63345681	    -15.70429922	      3.09933685	     74.52871507	     45.30264498	      0.00000000	      0.00000000	      4.14035712	     -9.94734599	      2.84406789	     32.31830166	     45.36239533	      0.00000000	      0.00000000
     28.71428571	     -2.42331756	     -2.46112040	      3.68404214	      1.10533403	      0.92676297	      0.44026734	      8.79967829	     -3.97224233	    -10.07332640	     41.42646297	     41.42646297	     10.94488236	     -6.65190322	    -17.15259793	     21.12147991	     -3.73038120	     -3.45159151	     24.46197792	     24.46197792	      8.76866980	    -11.53139767	     -1.99480153	     -8.11922333	      3.08292963	      2.78005894	     18.85735488	    -15.83233236	      3.38174855	     72.90763333	     45.33813929	      0.00000000	      0.00000000	      5.61258235	    -10.20061080	      2.73451149	     33.09031406	     45.40623485	      0.00000000	      0.00000000
     28.72714286	     -2.28460607	     -2.22418779	      3.45649850	      1.10494833	      0.92673452	      0.43856494	     10.69359855	     -4.73220204	     -9.48060488	     45.33309503	     45.33309503	      9.06165222	     -7.99829654	    -17.69609913	     20.60040389	     -3.43378303	     -3.62979464	     24.54351791	     24.54351791	      9.14289560	    -11.71981978	     -2.22515205	     -8.40894720	      2.76846268	      2.61388619	     17.22422297	    -15.75617784	      3.56987274	     71.34038805	     45.37585671	      0.00000000	      0.00000000	      7.00426028	    -10.52014157	      2.67907016	     33.71993241	     45.43768846	      0.00000000	      0.00000000
     28.74000000	     -2.18155273	     -2.13425116	      3.25617753	      1.10442484	      0.92672716	      0.43694533	     12.62818061	     -5.15482975	     -8.70538122	     48.96979588	     48.96979588	      6.27507694	    -10.40615715	    -19.06138897	     20.19200504	     -3.23510639	     -3.56232268	     24.68330503	     24.68330503	      9.30520741	    -12.32408265	     -2.49613210	     -8.59429541	      2.71780470	      2.61267919	     15.92156959	    -15.45031983	      3.22981709	     67.76138873	     45.49785641	      0.00000000	      0.00000000	      8.45629447	    -10.81043676	      2.92106420	     34.49922020	     45.43928627	      0.00000000	      0.00000000
     28.75285714	     -2.00969422	     -1.86705102	      3.05733875	      1.10398939	      0.92677619	      0.43533714	     14.54428054	     -5.92955964	     -8.24298718	     52.70269732	     52.70269732	      3.90511539	    -11.57282649	    -18.98777405	     19.64668455	     -2.90244777	     -3.74236110	     24.75853653	     24.75853653	      9.64903082	    -12.44480215	     -2.69731417	     -8.91145537	      2.44016196	      2.30264036	     14.26618519	    -15.27752561	      3.40743538	     66.27854660	     45.53234101	      0.00000000	      0.00000000	      9.81665817	    -11.20086950	      2.89505403	     35.14662643	     45.46545678	      0.00000000	      0.00000000
     28.76571429	     -1.92900576	     -1.83516444	      2.82253098	      1.10351750	      0.92686201	      0.43403045	     16.53765366	     -6.22457327	     -7.58032919	     56.11532221	     56.11532221	      1.18690859	    -13.41264903	    -18.61923373	     19.19939157	     -2.78270062	     -3.67427078	     24.77163020	     24.77163020	      9.84320363	    -12.96210604	     -2.96291747	     -9.00558252	      2.41384631	      2.08305040	     13.49510065	    -14.55231158	      2.62010197	     61.33718171	     45.71074876	      0.00000000	      0.00000000	     10.94983350	    -11.67540469	      3.70281100	     36.20960247	     45.40585675	      0.00000000	      0.00000000
     28.77857143	     -1.80035426	     -1.71359009	      2.54810140	      1.10310757	      0.92702003	      0.43282048	     18.44483958	     -6.65333868	     -7.03188604	     59.33957115	     59.33957115	     -1.24926300	    -14.58372450	    -17.63262584	     18.69220803	     -2.62149462	     -3.81717201	     24.81211649	     24.81211649	     10.18042004	    -13.16094266	     -3.08007823	     -9.25384987	      2.30290781	      2.09216407	     11.71069442	    -14.63970297	      2.77353557	     59.66692862	     45.75020190	      0.00000000	      0.00000000	     12.28719978	    -11.90618467	      3.70035933	     37.04910819	     45.43125799	      0.00000000	      0.00000000
